<svg width="100" height="100" viewBox="0 0 100 100" xmlns="http://www.w3.org/2000/svg">
  <defs>
    <pattern id="circuit" patternUnits="userSpaceOnUse" width="100" height="100">
      <path d="M10,10 L30,10 L30,30 L50,30 L50,50 L70,50 L70,70 L90,70" fill="none" stroke="white" stroke-width="1"/>
      <path d="M20,80 L40,80 L40,60 L60,60 L60,40 L80,40 L80,20" fill="none" stroke="white" stroke-width="1"/>
      <circle cx="10" cy="10" r="2" fill="white"/>
      <circle cx="30" cy="30" r="2" fill="white"/>
      <circle cx="50" cy="50" r="2" fill="white"/>
      <circle cx="70" cy="70" r="2" fill="white"/>
      <circle cx="90" cy="70" r="2" fill="white"/>
      <circle cx="20" cy="80" r="2" fill="white"/>
      <circle cx="40" cy="60" r="2" fill="white"/>
      <circle cx="60" cy="40" r="2" fill="white"/>
      <circle cx="80" cy="20" r="2" fill="white"/>
    </pattern>
  </defs>
  <rect width="100%" height="100%" fill="url(#circuit)"/>
</svg>
